<?xml version="1.0" encoding="utf-8"?>
<!-- Generator: Adobe Illustrator 19.0.0, SVG Export Plug-In . SVG Version: 6.00 Build 0)  -->
<svg version="1.1" id="Capa_1" xmlns="http://www.w3.org/2000/svg" xmlns:xlink="http://www.w3.org/1999/xlink" x="0px" y="0px"
	 viewBox="0 0 300 90" style="enable-background:new 0 0 300 90;" xml:space="preserve">
<style type="text/css">
	.st0{fill:#010202;}
</style>
<g id="XMLID_1_">
	<path id="XMLID_21_" class="st0" d="M44,35.4c-7.3,0-14.1,2.8-19.3,8c-5.2,5.2-8,12-8,19.3s2.8,14.1,8,19.3c5.2,5.2,12,8,19.3,8
		s14.1-2.8,19.3-8c5.2-5.2,8-12,8-19.3s-2.8-14.1-8-19.3C58.2,38.3,51.3,35.4,44,35.4z M59.3,78c-4.1,4.1-9.5,6.3-15.3,6.3
		S32.9,82.1,28.8,78c-4.1-4.1-6.3-9.5-6.3-15.3c0-5.8,2.2-11.2,6.3-15.3c4.1-4.1,9.5-6.3,15.3-6.3s11.2,2.2,15.3,6.3
		c4.1,4.1,6.3,9.5,6.3,15.3C65.6,68.5,63.4,73.9,59.3,78z"/>
	<path id="XMLID_22_" class="st0" d="M86.5,43.5c-2-2.5-3.7-4.6-3.7-9.4c0-4.3,1.8-7.2,3.2-9.3c0.2-0.3,0.4-0.6,0.6-0.9
		c0.8-1.4,0.4-3.1-1-3.9c-1.4-0.8-3.1-0.4-3.9,1c-0.1,0.2-0.3,0.5-0.5,0.8c-1.5,2.4-4.1,6.4-4.1,12.4c0,6.8,2.7,10.2,4.9,12.9
		c1.3,1.7,2.4,3,2.6,4.8c0.2,1.5-0.2,2.7-1.2,5.2c-1.9,4.9-4.9,12.4-3.8,30.3c0.1,1.5,1.4,2.7,2.9,2.7c0.1,0,0.1,0,0.2,0
		c1.6-0.1,2.8-1.5,2.7-3c-1-16.7,1.6-23.4,3.4-27.9c1.1-2.7,2-5.1,1.5-8.2C89.8,47.6,88.1,45.4,86.5,43.5z"/>
	<circle id="XMLID_23_" class="st0" cx="112.8" cy="35.2" r="4"/>
	<path id="XMLID_24_" class="st0" d="M113.2,8.8c-5.6-3.9-12.3-6.2-21.2-7.4c-7.7-1-16-1-24.8-1c-8.9,0-17.5,1.7-25.6,5.2
		c-7.8,3.3-14.9,8.1-20.9,14.1c-6,6-10.8,13.1-14.1,20.9c-3.4,8.1-5.2,16.7-5.2,25.6c0,7.5,1.3,14.9,3.7,21.9
		C5.5,89.3,6.6,90,7.8,90c0.3,0,0.6-0.1,1-0.2c1.5-0.5,2.3-2.2,1.7-3.7c-2.3-6.4-3.4-13.1-3.4-20c0-8.1,1.6-16,4.7-23.4
		c3-7.1,7.3-13.6,12.9-19.1c5.5-5.5,11.9-9.8,19.1-12.9C51.1,7.8,59,6.2,67.1,6.2c8.6,0,16.8,0,24.1,1c8,1,13.9,3.1,18.7,6.4
		c5.5,3.8,9.6,9.5,12.4,17.3c3.2,8.9,4.8,20.5,4.8,35.4c0,2-0.1,4-0.3,6.1h-0.1c0,0.3,0,0.6-0.1,1c0,0.2-0.1,0.4-0.1,0.6l0,0.1
		c-0.5,3.4-1.4,5.9-2.9,7.6c-1.5,1.8-3.5,2.6-6.1,2.6c-3.2,0-6.2-1.2-8.4-3.5c-2.2-2.3-3.5-5.3-3.5-8.5c0-3.1,1.2-5.9,3.4-7.6
		c1.9-1.6,4.4-2.2,7-1.7c1.6,0.3,3.1-0.7,3.3-2.3c0.3-1.6-0.7-3.1-2.3-3.3c-4.3-0.8-8.5,0.2-11.7,2.9c-3.5,2.9-5.4,7.3-5.4,12.1
		c0,4.7,1.8,9.2,5.1,12.5c3.3,3.4,7.7,5.2,12.5,5.2c4.4,0,8-1.6,10.5-4.7c2.1-2.5,3.5-6.1,4.1-10.5l0-0.1c0-0.2,0.1-0.5,0.1-0.7l0,0
		c0.3-2.7,0.5-5.3,0.5-7.8C132.8,36.3,126.6,18.1,113.2,8.8z"/>
	<path id="XMLID_27_" class="st0" d="M196,57.3c-9,0-16.4,7.3-16.4,16.4S186.9,90,196,90c9,0,16.4-7.3,16.4-16.4S205,57.3,196,57.3z
		 M196,84.3c-5.9,0-10.7-4.8-10.7-10.7S190.1,63,196,63c5.9,0,10.7,4.8,10.7,10.7S201.8,84.3,196,84.3z"/>
	<path id="XMLID_28_" class="st0" d="M284.1,66.5C284.1,66.5,284.1,66.5,284.1,66.5c-0.6-3.6-2.5-6.9-5.3-9.2
		c-2.8-2.4-6.4-3.7-10.1-3.7c-5.1,0-9.6,2.4-12.4,6.2c-0.4-1-0.7-1.9-1-2.7c-1-2.5-1.4-3.7-1.2-5.2c0.2-1.6-0.8-3-2.4-3.3
		c-1.6-0.2-3,0.8-3.3,2.4c-0.5,3.1,0.5,5.4,1.5,8.2c1.8,4.5,4.4,11.2,3.4,27.9c-0.1,1.6,1.1,2.9,2.7,3c0.1,0,0.1,0,0.2,0
		c1.5,0,2.8-1.2,2.9-2.7c0.4-7.3,0.2-12.9-0.3-17.3c0.1-0.3,0.2-0.6,0.2-0.9c0-5.4,4.4-9.9,9.9-9.9c2.3,0,4.6,0.8,6.4,2.3
		c1.8,1.5,2.9,3.6,3.3,5.8c0.6,3.6,0.9,11.9,0.4,19.6c-0.1,1.6,1.1,2.9,2.7,3c0.1,0,0.1,0,0.2,0c1.5,0,2.8-1.2,2.9-2.7
		C285.1,79,284.7,70.4,284.1,66.5C284.1,66.5,284.1,66.5,284.1,66.5z"/>
	<path id="XMLID_29_" class="st0" d="M247.5,66.5C247.5,66.5,247.5,66.5,247.5,66.5c-0.6-3.6-2.5-6.9-5.3-9.2
		c-2.8-2.4-6.4-3.7-10.1-3.7c-5.1,0-9.6,2.4-12.4,6.2c-0.4-1-0.7-1.9-1-2.7c-1-2.5-1.4-3.7-1.2-5.2c0.3-1.9,1.2-3.2,2.4-4.9
		c1.9-2.7,4.3-6.2,4.3-12.9c0-6-2.5-10-4.1-12.4c-0.2-0.3-0.4-0.6-0.5-0.8c-0.8-1.4-2.6-1.8-3.9-1c-1.4,0.8-1.8,2.6-1,3.9
		c0.2,0.3,0.4,0.6,0.6,0.9c1.3,2.1,3.2,5,3.2,9.3c0,4.9-1.6,7.2-3.2,9.6c-1.3,1.9-2.8,4.1-3.3,7.3c-0.5,3.1,0.5,5.4,1.5,8.2
		c1.8,4.5,4.4,11.2,3.4,27.9c-0.1,1.6,1.1,2.9,2.7,3c0.1,0,0.1,0,0.2,0c1.5,0,2.8-1.2,2.9-2.7c0.4-7.3,0.2-12.9-0.3-17.3
		c0.1-0.3,0.1-0.6,0.1-0.9c0-5.4,4.4-9.9,9.9-9.9c2.3,0,4.6,0.8,6.4,2.3c1.8,1.5,2.9,3.6,3.3,5.8c0.6,3.6,0.9,11.9,0.4,19.6
		c-0.1,1.6,1.1,2.9,2.7,3c0.1,0,0.1,0,0.2,0c1.5,0,2.8-1.2,2.9-2.7C248.4,79,248.1,70.4,247.5,66.5
		C247.5,66.5,247.5,66.5,247.5,66.5z"/>
	<circle id="XMLID_30_" class="st0" cx="188.6" cy="35.2" r="4"/>
	<path id="XMLID_31_" class="st0" d="M294.8,40.6c-3.3-7.8-8.1-14.9-14.1-20.9c-6-6-13.1-10.8-20.9-14.1c-8.1-3.4-16.7-5.2-25.6-5.2
		c-8.8,0-17.1,0-24.8,1c-8.9,1.2-15.7,3.5-21.2,7.4c-13.4,9.3-19.7,27.5-19.7,57.4c0,1.8,0.2,5,0.2,5.2l0,0c0,0.3,0,0.6,0,0.9
		c0,3.6-0.9,12-9.1,12s-9.1-8.4-9.1-12c0-2.6,1-4.5,2-6.5c0.9-1.7,1.7-3.3,1.7-5.2c0-2.3-1.1-4.3-3.5-6c-1.3-0.9-3.1-0.6-4,0.6
		c-0.9,1.3-0.6,3.1,0.6,4c0.3,0.2,1.1,0.9,1.1,1.3c0,0.6-0.6,1.6-1.1,2.7c-1.1,2.2-2.6,5.1-2.6,9c0,4.9,1.2,9.1,3.5,12.2
		c2.6,3.6,6.6,5.5,11.4,5.5s8.7-1.9,11.4-5.5c2.3-3.1,3.5-7.3,3.5-12.2c0-0.4,0-0.9,0-1.3c0-0.3-0.2-3.3-0.2-4.8
		c0-14.9,1.6-26.5,4.8-35.4c2.8-7.8,6.9-13.5,12.4-17.3c4.8-3.3,10.8-5.4,18.7-6.4c7.3-1,15.5-1,24.1-1c8.1,0,16,1.6,23.4,4.7
		c7.1,3,13.6,7.3,19.1,12.9c5.5,5.5,9.8,11.9,12.9,19.1c3.1,7.4,4.7,15.3,4.7,23.4c0,6.9-1.1,13.6-3.4,20c-0.5,1.5,0.3,3.1,1.7,3.7
		c0.3,0.1,0.6,0.2,1,0.2c1.2,0,2.3-0.7,2.7-1.9c2.5-7,3.7-14.4,3.7-21.9C300,57.3,298.3,48.7,294.8,40.6z"/>
</g>
</svg>
